<svg xmlns="http://www.w3.org/2000/svg" width="72" height="60" viewBox="0 0 72 60">
    <g fill="none" fill-rule="evenodd">
        <circle cx="42" cy="30" r="30" fill="#79C3FD"/>
        <path fill="#000" d="M32.42 20.796l-8.275-8.22a1.882 1.882 0 0 0-.677-.432 2.204 2.204 0 0 0-.774-.144H2.032c-.548 0-1.024.2-1.427.6-.403.401-.605.874-.605 1.419v36.914C0 51.51.202 52 .605 52.4c.403.4.879.601 1.427.601h28.936c.548 0 1.024-.2 1.427-.6.403-.401.605-.89.605-1.467V22.238c0-.256-.048-.513-.145-.77a1.867 1.867 0 0 0-.436-.672zm-3.533 28.118H4.113V16.086h16.5v8.219h8.274v24.61zm-17.71-15.236L8.226 36.61l6.193 6.152 10.355-10.286-2.951-2.884-7.404 7.354-3.242-3.268z"/>
    </g>
</svg>
