<svg xmlns="http://www.w3.org/2000/svg" width="81" height="60" viewBox="0 0 81 60">
    <g fill="none" fill-rule="evenodd">
        <circle cx="51" cy="30" r="30" fill="#79C3FD"/>
        <path fill="#000" d="M37.732 33.314c2.675 0 4.954-.941 6.837-2.824 1.884-1.882 2.825-4.16 2.825-6.833s-.941-4.95-2.825-6.833C42.686 14.94 40.407 14 37.732 14c-2.674 0-4.953.941-6.836 2.824-1.884 1.882-2.826 4.16-2.826 6.833s.942 4.95 2.826 6.833c1.883 1.883 4.162 2.824 6.836 2.824zm0-14.457c1.319 0 2.449.47 3.39 1.412.942.94 1.413 2.07 1.413 3.388s-.47 2.447-1.412 3.388c-.942.942-2.072 1.412-3.39 1.412-1.319 0-2.45-.47-3.39-1.412-.943-.94-1.413-2.07-1.413-3.388s.47-2.447 1.412-3.388c.942-.942 2.072-1.412 3.39-1.412zm0 16.829c-2.787 0-5.358.48-7.712 1.44-2.355.96-4.389 2.297-6.103 4.01-1.714 1.713-3.05 3.746-4.011 6.099-.96 2.353-1.441 4.941-1.441 7.765h4.803c0-2.146.357-4.104 1.073-5.873.716-1.77 1.705-3.295 2.967-4.575 1.261-1.28 2.778-2.268 4.548-2.965 1.77-.696 3.73-1.044 5.876-1.044 2.148 0 4.106.348 5.877 1.044 1.77.697 3.286 1.685 4.548 2.965 1.262 1.28 2.251 2.805 2.967 4.575.715 1.77 1.073 3.727 1.073 5.873H57c0-2.824-.48-5.412-1.44-7.765-.961-2.353-2.299-4.386-4.013-6.1-1.714-1.712-3.748-3.049-6.102-4.009-2.354-.96-4.925-1.44-7.713-1.44zm-18.464-4.8h-7.233v-7.229H7.232v7.229H0v4.8h7.232v7.229h4.803v-7.229h7.233v-4.8z"/>
    </g>
</svg>
