<svg xmlns="http://www.w3.org/2000/svg" width="64" height="60" viewBox="0 0 64 60">
    <g fill="none" fill-rule="evenodd">
        <circle cx="34" cy="30" r="30" fill="#79C3FD"/>
        <path fill="#000" d="M11.745 37.732L0 49.477 3.523 53l11.638-11.745V39.44l.748-.64c2.847 2.42 6.157 3.63 9.93 3.63 4.2 0 7.776-1.477 10.73-4.431C39.523 35.045 41 31.468 41 27.269c0-4.2-1.477-7.795-4.431-10.785C33.615 13.494 30.074 12 25.945 12c-4.2 0-7.776 1.495-10.73 4.484-2.954 2.99-4.431 6.585-4.431 10.784 0 3.773 1.21 7.083 3.63 9.93l-.747.534h-1.922zm14.094 0c-2.919 0-5.41-1.015-7.474-3.043-2.065-2.029-3.097-4.502-3.097-7.42 0-2.92 1.032-5.41 3.097-7.475 2.064-2.064 4.555-3.096 7.474-3.096 2.918 0 5.391 1.032 7.42 3.096 2.029 2.065 3.043 4.556 3.043 7.474 0 2.919-1.014 5.392-3.043 7.42-2.029 2.03-4.502 3.044-7.42 3.044z"/>
    </g>
</svg>
